<?xml version="1.0" encoding="utf-8"?>
<!-- Generator: Adobe Illustrator 18.0.0, SVG Export Plug-In . SVG Version: 6.00 Build 0)  -->
<!DOCTYPE svg PUBLIC "-//W3C//DTD SVG 1.1//EN" "http://www.w3.org/Graphics/SVG/1.1/DTD/svg11.dtd">
<svg version="1.1" id="Layer_1" xmlns="http://www.w3.org/2000/svg" xmlns:xlink="http://www.w3.org/1999/xlink" x="0px" y="0px"
	 viewBox="0 0 963.6 555.6" enable-background="new 0 0 963.6 555.6" xml:space="preserve">
<g>
	<path fill="#FFFFFF" d="M392.3,214c0,0,7-7.7,4.2-11.3c-2.8-2.8-11.3,4.2-11.3,4.2s-45.5,38.6-52.6,45.5l0,0c0,0-5.6,5.6-9.2,0.7
		c-4.2-4.2,0.7-9.2,0.7-9.2c7.7-7.7,45.5-51.9,45.5-51.9s7-7.7,3.5-11.3c-2.8-3.5-11.3,3.5-11.3,3.5s-44.9,38.6-51.9,45.5
		c0,0-5.6,5.6-9.2,0.7c-4.2-4.2,0.7-9.2,0.7-9.2c7.7-7.7,45.5-51.9,45.5-51.9s7-7.7,4.2-11.3c-2.8-2.8-11.3,4.2-11.3,4.2
		s-44.9,38.6-52.6,45.5c0,0-8.4,8.4-17.5,17.5l0,0L256.2,240c-13.3,13.3-19,30.1-17.5,44.9l0,0c0.7,12.6-7,20.3-7,20.3L16.3,508.6
		c-0.7,0.7-0.7,0.7-1.5,1.5c-9.8,9.8-12,24.6-3.5,32.3c7.7,7.7,22.4,7,32.3-3.5c0.7-0.7,0.7-0.7,1.5-1.5l204.1-216.8
		c0,0,7.7-7.7,20.3-7c0.7,0,0.7,0,1.5,0c14.1,1.5,30.8-4.2,43.6-17.5l12.6-12.6l1.5-0.7c8.4-8.4,17.5-17.5,17.5-17.5
		C353.8,258.2,392.3,214,392.3,214z"/>
	<path fill="#FFFFFF" d="M51.4,267.4l110.1,123.5c5.6,6.4,24.6-3.5,32.3-7l143.1,157.1c11.3,11.3,29.5,11.3,40.6,0
		c11.3-11.3,11.3-29.5,0-40.6L220.5,354.4l0.7,0.7L39.5,173.4c-7.7-7.7-19.7-7.7-27.4,0C12.9,173.4-10.4,197.9,51.4,267.4z"/>
	<g>
		<g>
			<path fill="#FFFFFF" d="M140.5,172.7l0.7,9.8c0,2.8,2.1,4.9,5.6,4.9H233c2.8,0,5.6-2.1,5.6-4.9l1.5-9.8H140.5z"/>
			<path fill="#FFFFFF" d="M245.8,33.7c-3.5,0-7,0.7-11.3,1.5c-8.4-15.4-25.9-25.9-44.9-25.9s-36.5,10.5-44.9,25.9
				c-2.8-0.7-5.6-0.7-9.2-0.7c-21.1,0-37.8,16.9-37.8,37.8c0,19.7,15.4,36.5,35.1,37.8l7,59.6h99.6l7.7-59.6
				c19.7-0.7,36.5-17.5,36.5-37.8C284.4,50.6,266.7,33.7,245.8,33.7z M247.2,98.2l-9.8,0.7l-0.7,9.2l-6.4,49.8h-11.3l2.1-32.9
				c0-1.5-0.7-2.1-2.1-2.8c-1.5,0-2.1,0.7-2.8,2.1l-2.1,33.7H193v-35.1c0-1.5-0.7-2.1-2.1-2.1s-2.1,0.7-2.1,2.1V158h-21.1l-2.1-33.7
				c0-1.5-1.5-2.1-2.8-2.1s-2.1,1.5-2.1,2.8l2.1,32.9h-12.6l-5.6-49.8l-0.7-9.2l-9.2-0.7c-14.1-0.7-24.6-12.6-24.6-26.7
				c0-14.7,12-26.7,26.7-26.7c2.1,0,4.2,0.7,6.4,0.7l8.4,2.1l4.2-7c7.7-12.6,21.1-20.3,35.7-20.3c14.7,0,28.8,8.4,35.7,20.3l2.8,7.7
				l8.4-2.1c2.1-0.7,4.9-0.7,7.7-0.7c14.7,0,26.7,12,26.7,26.7C273.1,85.6,261.8,97.6,247.2,98.2z"/>
		</g>
		<path fill="#FFFFFF" d="M251.3,221.7v-17.5l-10.5,14.7c-2.1,2.8-4.2,4.2-5.6,4.2c-4.2,0-9.2-5.6-11.3-7.7
			c-0.7-0.7-0.7-1.5-1.5-1.5c-0.7-0.7-1.5-1.5-2.1-2.1c-3.5-4.2-7-9.2-17.5-9.2c-5.6,0-10.5,2.1-14.1,4.9c-3.5-2.8-7.7-4.9-14.1-4.9
			c-9.8,0-14.7,5.6-17.5,9.2c-0.7,0.7-1.5,1.5-2.1,2.1c-0.7,0.7-0.7,0.7-1.5,1.5c-2.1,2.8-7,7.7-11.3,7.7c-2.1,0-4.2-1.5-5.6-4.2
			l-9.8-14.7l-0.7,17.5c0,0.7,0,14.1,8.4,23.1c4.9,5.6,11.3,7,19,7c16.2,0,28-7,33.7-14.7c6.4,7.7,17.5,14.7,33.7,14.7
			c7.7,0,14.7-2.8,19-7C252,235.8,251.3,222.5,251.3,221.7z"/>
	</g>
</g>
<g enable-background="new    ">
	<path fill="#FFFFFF" d="M447,401.4V278h26.8v123.5c0,14.8-5.2,27.5-15.7,38c-10.5,10.5-23.1,15.7-38,15.7c-14.8,0-27.5-5.2-38-15.7
		c-10.5-10.5-15.7-23.2-15.7-38V278h26.8v123.5c0,7.4,2.6,13.8,7.9,19c5.3,5.3,11.6,7.9,19,7.9c7.4,0,13.8-2.6,19-7.9
		C444.3,415.2,447,408.8,447,401.4z"/>
	<path fill="#FFFFFF" d="M502.5,278h26.8v177.2h-26.8V278z"/>
	<path fill="#FFFFFF" d="M597.2,455.4c-7.7,0-14.4-1-20.3-2.9c-5.9-1.9-12.2-5.3-18.9-10.3v-32.9c4.1,4.4,7.3,7.4,9.6,8.9
		c2.2,1.6,5,3.2,8.2,5c3.2,1.8,6.8,3.2,10.7,4.4c3.9,1.2,7.8,1.8,11.6,1.8c7.9,0,14.4-2.7,19.5-8.2c5.1-5.5,7.6-12,7.6-19.5
		c0-6.1-2.2-11.1-6.5-15c-4.3-3.8-11.4-8.2-21.2-13.2c-5.9-3-10.9-5.8-15-8.3c-4.1-2.5-8-5.5-11.7-9.2c-3.8-3.7-6.8-8-9.1-13.1
		c-2.3-5.1-3.5-11-3.5-17.9c0.3-6.7,2-13,4.9-18.7c3-5.8,6.9-10.9,12-15.2c5-4.4,10.8-7.7,17.2-10.1c6.4-2.4,13.2-3.6,20.3-3.6
		c5.3,0.2,10.2,0.9,14.6,2.2c4.4,1.3,9.4,3.7,15,7.1v27.7c-3.4-2.2-5.6-3.6-6.9-4.1c-1.2-0.5-3-1.4-5.3-2.6
		c-2.3-1.2-4.9-2.3-7.9-3.2c-3-0.9-6.2-1.3-9.5-1.3c-7.5,0.1-13.9,2.5-19,7.1c-5.2,4.7-7.8,10.1-7.8,16.2c0.2,5.8,2.3,10.5,6.5,14
		c4.2,3.5,11,7.4,20.3,11.7c6.4,3,11.6,5.7,15.6,8c4,2.3,8,5.3,11.9,9c3.9,3.7,7.1,8.3,9.5,13.9c2.4,5.6,3.7,12.2,3.8,19.9
		c0,7-1.5,13.7-4.4,20.1c-3,6.3-7.1,12-12.3,16.8s-11.3,8.7-18.1,11.4S604.7,455.4,597.2,455.4z"/>
	<path fill="#FFFFFF" d="M682.3,278h26.8v177.2h-26.8V278z"/>
	<path fill="#FFFFFF" d="M819.6,381.7V278h26.8v185l-81.8-110.6v102.9h-26.8V270.8L819.6,381.7z"/>
	<path fill="#FFFFFF" d="M875.2,278.9h81.7v26.8h-54.7v65.1h54.7v26.8h-54.7v30.7h54.7v26.8h-81.7V278.9z"/>
</g>
</svg>
